<mxfile host="app.diagrams.net" modified="2024-04-09T14:38:08.280Z" agent="Mozilla/5.0 (Windows NT 10.0; Win64; x64) AppleWebKit/537.36 (KHTML, like Gecko) Chrome/123.0.0.0 Safari/537.36" etag="I8TZTy-l2qSRGl4Znlwh" version="24.2.3" type="device">
  <diagram name="Página-1" id="Nw7cYVP5KbOM1r0xRWTF">
    <mxGraphModel dx="2736" dy="1027" grid="1" gridSize="10" guides="1" tooltips="1" connect="1" arrows="1" fold="1" page="1" pageScale="1" pageWidth="827" pageHeight="1169" math="0" shadow="0">
      <root>
        <mxCell id="0" />
        <mxCell id="1" parent="0" />
        <mxCell id="2" value="explica" style="whiteSpace=wrap;strokeWidth=2;" parent="1" vertex="1">
          <mxGeometry width="66" height="33" as="geometry" />
        </mxCell>
        <mxCell id="KDFLab0_P6mV_ZJ7wTyu-2" value="" style="rounded=0;whiteSpace=wrap;html=1;" parent="1" vertex="1">
          <mxGeometry x="3480" y="500" width="1170" height="750" as="geometry" />
        </mxCell>
        <mxCell id="KDFLab0_P6mV_ZJ7wTyu-3" value="&lt;h1 style=&quot;margin-top: 0px;&quot;&gt;teclado virtual&lt;/h1&gt;&lt;div&gt;&lt;ul style=&quot;display: flex; flex-direction: column; gap: 4px; margin: 12px 0px 0px; padding-inline-start: 24px; color: rgb(17, 17, 17); font-family: -apple-system, Roboto, SegoeUI, &amp;quot;Segoe UI&amp;quot;, &amp;quot;Helvetica Neue&amp;quot;, Helvetica, &amp;quot;Microsoft YaHei&amp;quot;, &amp;quot;Meiryo UI&amp;quot;, Meiryo, &amp;quot;Arial Unicode MS&amp;quot;, sans-serif; font-size: 16px; background-color: rgb(255, 255, 255);&quot;&gt;&lt;li&gt;O teclado virtual é um&amp;nbsp;&lt;strong&gt;software&lt;/strong&gt;&amp;nbsp;que simula um teclado convencional na tela do computador. Ele exibe todas as teclas padrão e pode ser usado para digitar texto sem a necessidade de um teclado físico.&lt;/li&gt;&lt;li&gt;Para abrir o&amp;nbsp;&lt;strong&gt;Teclado Virtual&lt;/strong&gt;&amp;nbsp;na tela de entrada, selecione o botão&amp;nbsp;&lt;strong&gt;Acessibilidade&lt;/strong&gt;&amp;nbsp;no canto inferior direito da tela de entrada e escolha&amp;nbsp;&lt;strong&gt;Teclado na Tela&lt;/strong&gt;.&lt;/li&gt;&lt;/ul&gt;&lt;/div&gt;" style="text;html=1;whiteSpace=wrap;overflow=hidden;rounded=0;" parent="1" vertex="1">
          <mxGeometry x="3520" y="540" width="440" height="210" as="geometry" />
        </mxCell>
        <mxCell id="fQc4wtqpsR38E7EsgWmw-2" value="&lt;div style=&quot;text-align: left;&quot;&gt;&lt;span style=&quot;font-size: 23px; background-color: rgb(255, 255, 255); color: rgb(17, 17, 17); font-family: -apple-system, Roboto, SegoeUI, &amp;quot;Segoe UI&amp;quot;, &amp;quot;Helvetica Neue&amp;quot;, Helvetica, &amp;quot;Microsoft YaHei&amp;quot;, &amp;quot;Meiryo UI&amp;quot;, Meiryo, &amp;quot;Arial Unicode MS&amp;quot;, sans-serif;&quot;&gt;&lt;b&gt;LUPA&lt;/b&gt;&lt;/span&gt;&lt;/div&gt;&lt;div style=&quot;text-align: left;&quot;&gt;&lt;span style=&quot;color: rgb(17, 17, 17); font-family: -apple-system, Roboto, SegoeUI, &amp;quot;Segoe UI&amp;quot;, &amp;quot;Helvetica Neue&amp;quot;, Helvetica, &amp;quot;Microsoft YaHei&amp;quot;, &amp;quot;Meiryo UI&amp;quot;, Meiryo, &amp;quot;Arial Unicode MS&amp;quot;, sans-serif; font-size: 16px; background-color: rgb(255, 255, 255);&quot;&gt;&lt;br&gt;&lt;/span&gt;&lt;/div&gt;&lt;div style=&quot;text-align: left; font-size: 18px;&quot;&gt;&lt;span style=&quot;color: rgb(17, 17, 17); font-family: -apple-system, Roboto, SegoeUI, &amp;quot;Segoe UI&amp;quot;, &amp;quot;Helvetica Neue&amp;quot;, Helvetica, &amp;quot;Microsoft YaHei&amp;quot;, &amp;quot;Meiryo UI&amp;quot;, Meiryo, &amp;quot;Arial Unicode MS&amp;quot;, sans-serif; background-color: rgb(255, 255, 255);&quot;&gt;&amp;nbsp;A Lupa é uma ferramenta que&amp;nbsp;&lt;/span&gt;&lt;span style=&quot;line-height: var(--cib-type-subtitle2-stronger-line-height); font-weight: var(--cib-type-subtitle2-stronger-font-weight); font-variation-settings: var(--cib-type-subtitle2-stronger-font-variation-settings); color: rgb(17, 17, 17); font-family: -apple-system, Roboto, SegoeUI, &amp;quot;Segoe UI&amp;quot;, &amp;quot;Helvetica Neue&amp;quot;, Helvetica, &amp;quot;Microsoft YaHei&amp;quot;, &amp;quot;Meiryo UI&amp;quot;, Meiryo, &amp;quot;Arial Unicode MS&amp;quot;, sans-serif; background-color: rgb(255, 255, 255);&quot;&gt;amplia a tela&lt;/span&gt;&lt;span style=&quot;color: rgb(17, 17, 17); font-family: -apple-system, Roboto, SegoeUI, &amp;quot;Segoe UI&amp;quot;, &amp;quot;Helvetica Neue&amp;quot;, Helvetica, &amp;quot;Microsoft YaHei&amp;quot;, &amp;quot;Meiryo UI&amp;quot;, Meiryo, &amp;quot;Arial Unicode MS&amp;quot;, sans-serif; background-color: rgb(255, 255, 255);&quot;&gt;&amp;nbsp;do computador para facilitar a visualização de textos e imagens.&amp;nbsp;&lt;/span&gt;&lt;a style=&quot;position: relative; border-bottom: 2px solid transparent; text-decoration-style: dotted; text-underline-offset: 3px; text-decoration-color: var(--cib-color-foreground-neutral-tertiary); font-family: -apple-system, Roboto, SegoeUI, &amp;quot;Segoe UI&amp;quot;, &amp;quot;Helvetica Neue&amp;quot;, Helvetica, &amp;quot;Microsoft YaHei&amp;quot;, &amp;quot;Meiryo UI&amp;quot;, Meiryo, &amp;quot;Arial Unicode MS&amp;quot;, sans-serif; background-color: rgb(255, 255, 255);&quot; target=&quot;_blank&quot; data-citationid=&quot;f61943f8-87f6-8a99-46db-e5f19c61105a-21-group&quot; class=&quot;tooltip-target&quot; href=&quot;https://www.vlibras.com.br/ferramentas-de-acessibilidade-do-windows/&quot;&gt;Você pode ativá-la pressionando as teclas&amp;nbsp;&lt;span style=&quot;font-size: var(--cib-type-subtitle2-stronger-font-size); line-height: var(--cib-type-subtitle2-stronger-line-height); font-weight: var(--cib-type-subtitle2-stronger-font-weight); font-variation-settings: var(--cib-type-subtitle2-stronger-font-variation-settings); pointer-events: none;&quot;&gt;Windows + “+”&lt;/span&gt;&amp;nbsp;no teclado ou acessando as configurações de acessibilidade&lt;/a&gt;&lt;/div&gt;" style="text;html=1;align=center;verticalAlign=middle;whiteSpace=wrap;rounded=0;" vertex="1" parent="1">
          <mxGeometry x="4160" y="620" width="290" height="30" as="geometry" />
        </mxCell>
        <mxCell id="fQc4wtqpsR38E7EsgWmw-3" value="&lt;font style=&quot;font-size: 19px;&quot;&gt;&lt;b&gt;NARRADOR&lt;/b&gt;&lt;/font&gt;&lt;div&gt;&lt;font style=&quot;font-size: 19px;&quot;&gt;&lt;b&gt;&lt;br&gt;&lt;/b&gt;&lt;/font&gt;&lt;/div&gt;&lt;div style=&quot;font-size: 19px;&quot;&gt;&lt;font style=&quot;font-size: 19px;&quot;&gt;&lt;span style=&quot;color: rgb(17, 17, 17); font-family: -apple-system, Roboto, SegoeUI, &amp;quot;Segoe UI&amp;quot;, &amp;quot;Helvetica Neue&amp;quot;, Helvetica, &amp;quot;Microsoft YaHei&amp;quot;, &amp;quot;Meiryo UI&amp;quot;, Meiryo, &amp;quot;Arial Unicode MS&amp;quot;, sans-serif; background-color: rgb(255, 255, 255);&quot;&gt;&amp;nbsp;O Narrador é uma ferramenta de&amp;nbsp;&lt;/span&gt;&lt;span style=&quot;line-height: var(--cib-type-subtitle2-stronger-line-height); font-weight: var(--cib-type-subtitle2-stronger-font-weight); font-variation-settings: var(--cib-type-subtitle2-stronger-font-variation-settings); color: rgb(17, 17, 17); font-family: -apple-system, Roboto, SegoeUI, &amp;quot;Segoe UI&amp;quot;, &amp;quot;Helvetica Neue&amp;quot;, Helvetica, &amp;quot;Microsoft YaHei&amp;quot;, &amp;quot;Meiryo UI&amp;quot;, Meiryo, &amp;quot;Arial Unicode MS&amp;quot;, sans-serif; background-color: rgb(255, 255, 255);&quot;&gt;leitura de tela&lt;/span&gt;&lt;span style=&quot;color: rgb(17, 17, 17); font-family: -apple-system, Roboto, SegoeUI, &amp;quot;Segoe UI&amp;quot;, &amp;quot;Helvetica Neue&amp;quot;, Helvetica, &amp;quot;Microsoft YaHei&amp;quot;, &amp;quot;Meiryo UI&amp;quot;, Meiryo, &amp;quot;Arial Unicode MS&amp;quot;, sans-serif; background-color: rgb(255, 255, 255);&quot;&gt;&amp;nbsp;que lê em voz alta tudo o que está na tela do computador. É especialmente útil para pessoas com deficiência visual. Para ativá-lo, pressione as teclas&amp;nbsp;&lt;/span&gt;&lt;span style=&quot;line-height: var(--cib-type-subtitle2-stronger-line-height); font-weight: var(--cib-type-subtitle2-stronger-font-weight); font-variation-settings: var(--cib-type-subtitle2-stronger-font-variation-settings); color: rgb(17, 17, 17); font-family: -apple-system, Roboto, SegoeUI, &amp;quot;Segoe UI&amp;quot;, &amp;quot;Helvetica Neue&amp;quot;, Helvetica, &amp;quot;Microsoft YaHei&amp;quot;, &amp;quot;Meiryo UI&amp;quot;, Meiryo, &amp;quot;Arial Unicode MS&amp;quot;, sans-serif; background-color: rgb(255, 255, 255);&quot;&gt;Windows + Ctrl + Enter&lt;/span&gt;&lt;span style=&quot;color: rgb(17, 17, 17); font-family: -apple-system, Roboto, SegoeUI, &amp;quot;Segoe UI&amp;quot;, &amp;quot;Helvetica Neue&amp;quot;, Helvetica, &amp;quot;Microsoft YaHei&amp;quot;, &amp;quot;Meiryo UI&amp;quot;, Meiryo, &amp;quot;Arial Unicode MS&amp;quot;, sans-serif; background-color: rgb(255, 255, 255);&quot;&gt;.&lt;/span&gt;&lt;b&gt;&lt;br&gt;&lt;/b&gt;&lt;/font&gt;&lt;/div&gt;" style="text;html=1;align=left;verticalAlign=middle;whiteSpace=wrap;rounded=0;" vertex="1" parent="1">
          <mxGeometry x="3520" y="930" width="270" height="30" as="geometry" />
        </mxCell>
        <mxCell id="fQc4wtqpsR38E7EsgWmw-5" value="&lt;div style=&quot;text-align: left;&quot;&gt;&lt;font size=&quot;1&quot; face=&quot;-apple-system, Roboto, SegoeUI, Segoe UI, Helvetica Neue, Helvetica, Microsoft YaHei, Meiryo UI, Meiryo, Arial Unicode MS, sans-serif&quot; color=&quot;#111111&quot;&gt;&lt;span style=&quot;background-color: rgb(255, 255, 255);&quot;&gt;&lt;b style=&quot;font-size: 22px;&quot;&gt;RECONHECIMENTO DE VOZ&lt;/b&gt;&lt;/span&gt;&lt;/font&gt;&lt;/div&gt;&lt;div style=&quot;text-align: left;&quot;&gt;&lt;font face=&quot;-apple-system, Roboto, SegoeUI, Segoe UI, Helvetica Neue, Helvetica, Microsoft YaHei, Meiryo UI, Meiryo, Arial Unicode MS, sans-serif&quot; color=&quot;#111111&quot;&gt;&lt;span style=&quot;font-size: 19px; background-color: rgb(255, 255, 255);&quot;&gt;&lt;br&gt;&lt;/span&gt;&lt;/font&gt;&lt;/div&gt;&lt;span style=&quot;color: rgb(17, 17, 17); font-family: -apple-system, Roboto, SegoeUI, &amp;quot;Segoe UI&amp;quot;, &amp;quot;Helvetica Neue&amp;quot;, Helvetica, &amp;quot;Microsoft YaHei&amp;quot;, &amp;quot;Meiryo UI&amp;quot;, Meiryo, &amp;quot;Arial Unicode MS&amp;quot;, sans-serif; text-align: left; background-color: rgb(255, 255, 255);&quot;&gt;&lt;font style=&quot;font-size: 19px;&quot;&gt;Essa ferramenta permite controlar o computador usando comandos de voz. É útil para pessoas com dificuldades motoras.&lt;/font&gt;&lt;/span&gt;" style="text;html=1;align=center;verticalAlign=middle;whiteSpace=wrap;rounded=0;" vertex="1" parent="1">
          <mxGeometry x="4160" y="960" width="200" height="30" as="geometry" />
        </mxCell>
      </root>
    </mxGraphModel>
  </diagram>
</mxfile>
